<svg xmlns="http://www.w3.org/2000/svg" width="536.59mm" height="175.55mm" viewBox="0 0 1521.04 497.61">
  <defs>
    <style>
      .cls-1 {
        fill: #fff;
      }

      .cls-2 {
        fill: #d3a035;
      }
    </style>
  </defs>
  <g id="Calque_2" data-name="Calque 2">
    <g id="Calque_1-2" data-name="Calque 1">
      <g>
        <path class="cls-1" d="M1396,223.43c-.94.79-.46,1.76-.28,2.66.72,3.6,1.57,7.18,2.22,10.8a162.41,162.41,0,0,1,2.26,39.63c-1.29,19.88-5.3,39.24-10.7,58.36a458.8,458.8,0,0,1-32.12,82c-2.44,4.85-5,9.66-7.47,14.48-.52,1-1,2-1.62,2.94-1.21,2-2.35,2.09-3.45.15-2.21-3.89-4.34-7.83-6.49-11.76l-56.51-103c-7.92-14.44-15.81-28.89-23.8-43.29a45.2,45.2,0,0,0-4.79-7.14q-29.44-35.08-59-70.08a20.52,20.52,0,0,0-8.43-6.1c-20.08-7.9-40.13-15.91-60.19-23.88-3.86-1.54-7.71-3.12-11.59-4.61a36.7,36.7,0,0,0-3.78-1,12.34,12.34,0,0,0-.5,2c-.44,8-.11,37.84.49,41.55,1.21.61,2.59,1.38,4,2q40.82,18,81.65,36a22.56,22.56,0,0,1,8.38,6.19c5.78,6.84,11.64,13.61,17.51,20.37a24.27,24.27,0,0,1,4.4,7.33c7.46,19.56,15,39.08,22.55,58.62a29.37,29.37,0,0,1,1.25,4.1c.21.92-.91,1.76-2,1.47-1.39-.38-2.75-.84-4.1-1.33L1205.67,328l-78.89-28.66c-4.51-1.64-9-3.28-13.54-4.88-.87-.31-1.79-.46-3-.75a12.21,12.21,0,0,0-.54,2.43q0,20.87,0,41.74A14.71,14.71,0,0,0,1110,340c1.19,1.56,2.81,1.9,4.29,2.44q41,14.9,82.07,29.74,39,14.16,78,28.37c.3.11.58.27.89.35a8.5,8.5,0,0,1,6.32,6c.29.91.72,1.78,1.09,2.67q16.13,39.49,32.24,79c.7,1.73,1.84,3.39,1.49,5.4-1.31,1.08-2.51.28-3.65-.09-7.46-2.4-14.9-4.85-22.34-7.3l-54.21-17.83q-29.37-9.69-58.76-19.37-32.34-10.64-64.71-21.23l-65.16-21.44c-4.4-1.45-8.78-3-13.21-4.34-2.55-.77-3.69-2.32-3.54-4.93.06-1,0-1.92,0-2.87q.06-158.07.12-316.12a43.92,43.92,0,0,1,.53-7.16A17.27,17.27,0,0,1,1041,58.21a12.5,12.5,0,0,1,6.42-1.62c4.32.18,8.64.29,13,.51,11,.54,22,1.15,33.07,1.68,1.56.08,3.19.51,5-.66.31-2.09.71-4.43,1-6.79.81-6.67,1.76-13.3,4.39-19.58a48.07,48.07,0,0,1,25-25.93c9.77-4.48,19.72-3.8,29.28.51,3.73,1.69,6.24,1.4,9.55-.85,9.81-6.7,20.22-7.18,30.89-1.87a51.55,51.55,0,0,1,12,8.63q37.54,35,75.14,69.94c.93.88,1.84,1.78,2.83,2.59a7.88,7.88,0,0,1,3.16,6.21c0,4.46,2.48,7.21,5.72,9.92,16.45,13.73,32.74,27.65,49.1,41.49,1.19,1,2.51,1.88,4,3,1.39-.92,2.61-1.63,3.72-2.49,1.38-1.09,2.67-2.29,4-3.45,7.24-6.37,15.46-6.9,23.68-2.85,11.06,5.45,16.78,14.89,17.78,27.13.2,2.38-.06,4.79,0,7.19,0,2.06,1,2.88,3.07,2.54,1.89-.31,3.75-.8,5.63-1.19,13.81-2.81,27.65-3.2,41.42.07,16.64,3.95,30.13,12.9,40.6,26.4a141,141,0,0,1,24.83,49.88c4.53,16.66,6.06,33.62,5.86,50.8a287.06,287.06,0,0,1-5.77,52.36c-1.61,8.15-3.37,16.27-5.06,24.4-.1.47-.21.94-.27,1.41-.34,2.5-1.89,3.31-4.27,3.6-6.19.75-12.35,1.76-18.53,2.64L1405,395.54q-10.68,1.53-21.37,3a18.16,18.16,0,0,1-2.85.23,1.88,1.88,0,0,1-1.64-2,31.54,31.54,0,0,1,1.29-3.6,458.16,458.16,0,0,0,15.69-43.74,366.68,366.68,0,0,0,11.09-48.07,173,173,0,0,0,2.09-38.24,92.23,92.23,0,0,0-4.82-25.36,42.87,42.87,0,0,0-6.73-12.64,13.44,13.44,0,0,0-1.71-1.57l-.38-.06,0,.3Zm-70.67-70c2.42-.31,5.59-.7,8.76-1.13,1.42-.2,2.85-.41,4.25-.72,1.58-.34,2-1.72,1-2.82-.79-.79-1.66-1.51-2.51-2.23l-31.11-26.29c-6.1-5.16-12.23-10.28-18.28-15.5a9.06,9.06,0,0,0-6-2.52c-.8,0-1.6-.16-2.39-.12-3.78.19-6.67-1.43-9.41-3.95q-29.8-27.39-59.77-54.64a43,43,0,0,0-3.62-3.13,8.6,8.6,0,0,0-9.89-.15,6.09,6.09,0,0,0-1.07,9.53,21.65,21.65,0,0,0,2.16,1.89q10.55,8.68,21.08,17.37L1307.41,142c3.7,3,7.42,6.06,11.1,9.12A9.18,9.18,0,0,0,1325.36,153.46ZM1315,181.16c-1.21-.91-2-1.44-2.72-2q-13-11-26-22l-61.16-51.68q-13.36-11.3-26.73-22.6c-.81-.68-1.52-1.72-3.14-1.06a13.5,13.5,0,0,0-.26,2.12c.1,2.72.27,5.43.42,8.14.26,4.9.26,4.9,4,8.07l.37.31,67.37,56.94q18.12,15.32,36.27,30.6c1,.89,1.92,2.22,4.08,2ZM1141.72,48.76a21.64,21.64,0,0,0-3-12.35c-4.91-7.79-11.92-6.16-15.47.1a24,24,0,0,0-1.32,21.6,17.07,17.07,0,0,0,3.69,5.49,7.41,7.41,0,0,0,10.7,0,17.71,17.71,0,0,0,2.83-3.81A21,21,0,0,0,1141.72,48.76Z"/>
        <path class="cls-1" d="M538.51,388.46c-1.67,1.44-3.5,1-5.22,1-9.59,0-19.19,0-28.79,0H491.55c-1.12,0-2.25,0-3.36-.07-1.78-.17-2.54-.93-2.69-2.75-.11-1.27-.07-2.56-.07-3.84q-.07-101.91-.13-203.81c0-1.12,0-2.24,0-3.36.14-2.64.79-3.26,3.54-3.43,1-.06,1.92,0,2.88,0h38.39c6.42,0,6.4,0,6.87,6.22.22,3,.55,6,.84,9.05,0,.1.2.19.34.32,1.43.33,1.88-.93,2.52-1.72a47.79,47.79,0,0,1,12.22-10.68,43.08,43.08,0,0,1,20.84-6.46,61.42,61.42,0,0,1,17.62,1.49c11.24,2.75,19.44,9.36,24.85,19.49A52.54,52.54,0,0,1,622,208.58a126.88,126.88,0,0,1,1.1,14.81q.24,80.33.27,160.66c0,5.25-.15,5.41-5.34,5.42q-21.36,0-42.71,0a27.43,27.43,0,0,1-2.87-.07,2.65,2.65,0,0,1-2.7-2.79c-.1-1.59-.06-3.19-.06-4.79q0-70.5,0-141c0-3.36-.14-6.71-.3-10.07a22.72,22.72,0,0,0-2.25-8.77,11.48,11.48,0,0,0-7.88-6.46,19.57,19.57,0,0,0-9.5.05,10.92,10.92,0,0,0-6.8,5,22.62,22.62,0,0,0-3.4,10.87c-.31,4.95-.53,9.9-.54,14.85q-.07,68.1-.06,136.2C539,384.53,539.34,386.63,538.51,388.46Z"/>
        <path class="cls-1" d="M654.18,173.15c1.34-1,2.8-1,4.24-1h41.73c.32,0,.65,0,1,0,3,.19,3.63.7,3.89,3.65.28,3.19.44,6.38.68,9.57.06.74.22,1.48.35,2.37,1.78,0,2.43-1.21,3.2-2.12A49.6,49.6,0,0,1,722,174.9,41.85,41.85,0,0,1,741.51,169a66.67,66.67,0,0,1,15.77.79c14,2.75,23.57,10.84,29,23.9a68,68,0,0,1,4.83,22.39c.17,2.87.21,5.75.22,8.63q.1,79.13.18,158.24c0,1.89.31,3.83-.48,5.53-1.45,1.36-3.12,1-4.68,1-6.88,0-13.75,0-20.63,0H744.62c-1,0-1.92,0-2.88,0-3.2-.15-3.76-.74-3.87-4.09,0-1.12,0-2.24,0-3.36q0-71.2.07-142.41c0-3-.1-6.08-.37-9.1a22.71,22.71,0,0,0-1.21-6.08,20.44,20.44,0,0,0-3.23-5.79c-4.56-5.53-18.23-5.23-22.24,2.41a28.36,28.36,0,0,0-3.14,10.49c-.31,3.17-.48,6.38-.49,9.57q-.12,70.72-.17,141.45c0,1.9-.1,3.79-.15,5.89a23.28,23.28,0,0,1-2.86.78,21.12,21.12,0,0,1-2.87.06q-20.88,0-41.74,0c-1.73,0-3.54.38-5.32-.83a13.06,13.06,0,0,1-.47-2.12c-.09-1.44,0-2.88,0-4.32q0-101.17,0-202.34C653.63,177.45,653.17,175.17,654.18,173.15Z"/>
        <path class="cls-1" d="M54.16,268.88a4.29,4.29,0,0,0-.4,1.27q-.07,35-.06,70a7,7,0,0,0,.35,1.65c1.36,1.3,2.87.93,4.27.94,9.27,0,18.55,0,27.83,0q14.64,0,29.27,0c4.82,0,5,.3,4.39,4.86q-2.61,18.51-5.2,37c-.11.79-.16,1.59-.33,2.37-.34,1.61-1,2.24-2.56,2.37-1.11.1-2.23.08-3.35.08q-51.35,0-102.7,0c-1.71,0-3.55.45-5.12-.91a5.12,5.12,0,0,1-.37-1.3q0-135.26,0-270.5a13.39,13.39,0,0,1,.36-2.06c1-.19,1.84-.43,2.75-.54a21.33,21.33,0,0,1,2.4,0q51.11,0,102.21,0c1.72,0,3.51-.3,5.38.69a31.62,31.62,0,0,1,.32,3.22q0,19.42,0,38.85c0,4-.36,4.41-4.36,4.42q-24.72,0-49.43,0c-1.73,0-3.47.09-4.8.12-1.6,1.27-1.29,2.63-1.29,3.86,0,7.52,0,15,0,22.55q0,13.9,0,27.81c0,1.58.1,3.16.17,5a14.94,14.94,0,0,0,2.8.71c1.75.11,3.51,0,5.27,0,14.24,0,28.48,0,42.71,0,1.73,0,3.53-.36,5.42.73a12.32,12.32,0,0,1,.5,2.53q.06,19.91,0,39.81a19.33,19.33,0,0,1-.29,2.56c-1.61,1.41-3.28,1-4.83,1-8.48,0-17,0-25.43,0-7,0-14.08,0-21.12,0C57.31,268.1,55.65,267.74,54.16,268.88Z"/>
        <path class="cls-1" d="M817.41,283.39c0-8.15,0-16.3,0-24.46a264.11,264.11,0,0,1,1.52-32.06,71.1,71.1,0,0,1,12.62-33.27A54.18,54.18,0,0,1,860,172.71c16.14-5.13,32.52-5.06,48.81-1.36,15.47,3.52,26.93,12.86,34.73,26.61,5.21,9.18,7.86,19.19,8.92,29.63.45,4.44.76,8.92.79,13.39.13,16.15.11,32.29.14,48.43,0,.8,0,1.61-.06,2.4-.15,1.63-.78,2.36-2.34,2.49s-2.87.1-4.31.1q-34.3,0-68.61,0c-7.36,0-7.35.13-7.37,7,0,8.47,0,16.94.19,25.4a103.93,103.93,0,0,0,1.2,11.92c.85,6.09,4.85,10.08,11,11a21.87,21.87,0,0,0,5.24.05,10.9,10.9,0,0,0,9.3-6.63,26.23,26.23,0,0,0,2-6.36c.57-3.13.79-6.33,1.12-9.51.14-1.27.08-2.56.23-3.82.26-2.18.92-2.8,3-3,.8-.06,1.6,0,2.4,0q20.39,0,40.78,0c5.3,0,5.46.17,5.4,5.33a89.78,89.78,0,0,1-4.94,29.65c-6.44,17.89-19.12,29.07-37.23,34.32-11.07,3.21-22.4,3.42-33.79,2.7a83.86,83.86,0,0,1-22.13-3.93c-15-5.15-25.21-15.28-30.81-30.07a88.24,88.24,0,0,1-5.58-27.13c-.37-7.66-.43-15.34-.5-23-.08-8.32,0-16.63,0-24.94Zm84.08-42.7h.1c0-4,0-8,0-12a20.84,20.84,0,0,0-2.24-9.23c-4.85-10.16-16.44-10.34-22.08-5a17.6,17.6,0,0,0-4.52,6.69,28.23,28.23,0,0,0-1.55,9.41c-.1,6.86-.14,13.73-.2,20.6a27.44,27.44,0,0,0,.06,2.87c.16,1.81.84,2.48,2.78,2.58,2.24.1,4.48.08,6.71.1,5.75.06,11.51.17,17.26.14,3,0,3.6-.63,3.65-3.73C901.55,249,901.49,244.85,901.49,240.69Z"/>
        <path class="cls-1" d="M460.21,293.62c-2.43,1.11-4.38.77-6.27.77q-34.32,0-68.64,0c-7.62,0-7,.08-7.37,7.05a208.84,208.84,0,0,0,1.39,37.33,11.76,11.76,0,0,0,6.06,9.23,15.4,15.4,0,0,0,13.42,1,10.51,10.51,0,0,0,5.87-5.39,24.58,24.58,0,0,0,2.61-8.68c.37-3.65.6-7.32.91-11,.23-2.76.79-3.31,3.51-3.47.64,0,1.28,0,1.92,0q20.4,0,40.79,0c5.32,0,5.54.18,5.43,5.3-.23,10.29-1.56,20.39-5.2,30.1-6.75,18-19.7,29-38.1,34-10.47,2.84-21.14,3.36-31.89,2.63-6-.41-12.1-.82-18-2.36-17.95-4.68-30.05-15.64-36.26-33.11a87.91,87.91,0,0,1-4.53-20.56c-.54-5.24-1-10.52-1-15.78-.14-23.66-.09-47.33-.16-71a166.16,166.16,0,0,1,2.08-26.75,67.5,67.5,0,0,1,15.62-34A54.19,54.19,0,0,1,371,171.54a91.8,91.8,0,0,1,48.37,1c13.71,4,23.83,12.75,30.95,25a68.62,68.62,0,0,1,8.75,26.21A127.14,127.14,0,0,1,460.2,238c.22,17.1.26,34.21.33,51.32C460.54,290.72,460.33,292.13,460.21,293.62Zm-51.64-52.37h.34c0-3.35,0-6.7,0-10.05a27,27,0,0,0-1.73-10.32c-1.78-4.51-4.68-8.24-9.58-9.27-6.78-1.42-12.62-.25-16.75,7.68a23.23,23.23,0,0,0-2.43,10.62c-.07,5.91-.1,11.81-.14,17.71,0,2.07-.08,4.15,0,6.22.08,1.9.75,2.63,2.6,2.75,2.23.14,4.47.1,6.7.13,5.74.07,11.49.2,17.23.2,2.9,0,3.67-.77,3.73-3.71C408.64,249.22,408.57,245.23,408.57,241.25Z"/>
        <path class="cls-1" d="M145.88,287.63V225.77c0-6.61,0-6.61-6.67-6.63-3.2,0-6.39,0-9.59,0a13.65,13.65,0,0,1-2.86-.25,2.29,2.29,0,0,1-1.87-1.95,30.46,30.46,0,0,1-.2-3.82q0-17.51,0-35c0-5.48.26-5.73,5.61-5.78,3.35,0,6.71,0,10.07,0,1.12,0,2.25,0,3.36-.06,1.8-.16,2.46-.86,2.59-2.78.09-1.27.05-2.55.05-3.83q0-18,0-36a32.5,32.5,0,0,1,.2-4.3,2.52,2.52,0,0,1,2.57-2.36c.95-.08,1.92-.05,2.88-.05h41.74c1,0,1.92,0,2.87,0,2,.17,2.78.94,2.94,3,.1,1.27,0,2.55,0,3.83q0,18.47,0,36.92c0,5.3.09,5.37,5.33,5.39,4.48,0,9,0,13.43,0a26.89,26.89,0,0,1,3.36.11,2.59,2.59,0,0,1,2.48,2.47,27.34,27.34,0,0,1,.09,2.87q0,17.75,0,35.48v.48c-.08,5.11-.36,5.4-5.49,5.43-4.48,0-9,0-13.44,0-1.12,0-2.24,0-3.35.09a2.34,2.34,0,0,0-2.45,2.41c-.11,1.11-.08,2.24-.08,3.36q0,47.7,0,95.42c0,4.79.07,9.59.33,14.38a28.77,28.77,0,0,0,1.27,6.54,7.4,7.4,0,0,0,6.13,5.44,76.32,76.32,0,0,0,8.56.65c1.43.06,2.87-.23,4.31-.2a2.51,2.51,0,0,1,2.76,2.63c.06.63,0,1.28,0,1.91,0,10.71,0,21.42,0,32.13,0,4.39-.32,4.73-4.77,5.59-8.64,1.69-17.34,3-26.17,2.85-7-.11-14.05-.39-20.9-2.35-10.27-2.94-17.24-9.4-21-19.31A63.92,63.92,0,0,1,146.13,349c-.2-8.79-.22-17.58-.24-26.37C145.85,311,145.88,299.3,145.88,287.63Z"/>
        <path class="cls-1" d="M245.71,172.84a8.91,8.91,0,0,1,2.12-.48q24.45,0,48.91.17c.42,0,.83.41,1.38.71a18.06,18.06,0,0,1,.38,2.26c.07,1.28,0,2.56,0,3.84V382.13c0,1.6,0,3.2-.08,4.79a2.26,2.26,0,0,1-2.38,2.47c-1.11.11-2.23.08-3.35.09q-21.11,0-42.22,0c-5.55,0-5.58,0-5.58-5.63q0-102.82,0-205.67C244.93,176.46,244.53,174.65,245.71,172.84Z"/>
        <path class="cls-1" d="M298.37,149.48c-4.12.71-37.3,1.09-49.8.63a26.7,26.7,0,0,1-2.93-.47,21.53,21.53,0,0,1-.53-3.34q-.06-20.37,0-40.73a4.13,4.13,0,0,1,.18-1.88,3.3,3.3,0,0,1,1.57-1.56,9.28,9.28,0,0,1,2.85-.21q22.05,0,44.11-.06c1.4,0,2.89-.3,4.45.93a8.77,8.77,0,0,1,.39,2q.08,21.09.08,42.17A20.51,20.51,0,0,1,298.37,149.48Z"/>
        <path class="cls-1" d="M1066.47,429.69c-.8,1.61-2.09,1.86-3.26,2.27q-32.7,11.7-65.41,23.39-20.29,7.27-40.57,14.6c-1.5.54-3,1-4.56,1.46-.35.1-.79-.11-1.59-.25a22.06,22.06,0,0,1,4.23-3.5l44.71-32.2c7.77-5.6,15.57-11.17,23.3-16.84,2.08-1.52,4.06-2.23,6.66-1.36,11.8,4,23.65,7.84,35.48,11.75A5.84,5.84,0,0,1,1066.47,429.69Z"/>
        <path class="cls-2" d="M689.06,446.17c-2.15,1.43-2.36,3.1-2.87,4.54-3.16,8.88-6.25,17.78-9.37,26.68-1.32,3.76-2.59,7.55-4,11.29-1.22,3.3-2.9,4.66-5.42,4.54-2.85-.14-4.19-2.1-5-4.46-3-8.44-5.84-16.91-8.79-25.35-1.75-5-3.58-9.91-5.4-14.86a19.12,19.12,0,0,0-1-2c-1.74.34-1.67,1.59-1.86,2.6q-3.48,17.87-6.93,35.75a46.66,46.66,0,0,1-1.29,5.59,3.91,3.91,0,0,1-4.08,2.7,2.15,2.15,0,0,1-2.23-2,31.33,31.33,0,0,1,.57-4.73q3.78-19.53,7.63-39c.55-2.82,1-5.65,1.72-8.44a7.13,7.13,0,0,1,1.42-3,4.7,4.7,0,0,1,7.69,1,48.24,48.24,0,0,1,2.68,6.66c4.18,11.73,8.3,23.49,12.49,35.22.56,1.58.78,3.44,2.81,4.53a11.32,11.32,0,0,0,1.57-2.27c1.26-3.28,2.41-6.6,3.58-9.91Q678.49,455.57,684,440a17.57,17.57,0,0,1,1.59-3.47,4.41,4.41,0,0,1,4.51-2.1,4.56,4.56,0,0,1,4,3,20.92,20.92,0,0,1,.83,3.25q4.68,23.74,9.33,47.48c.12.63.25,1.26.31,1.89.21,2.3-1.38,3.6-3.61,3a3.79,3.79,0,0,1-2.75-2.45,31.41,31.41,0,0,1-1.05-4.17q-3.48-17.88-6.94-35.75C690,449.3,689.53,448,689.06,446.17Z"/>
        <path class="cls-2" d="M818.31,464q0-11,0-22.06c0-1.28,0-2.56.09-3.83a3.88,3.88,0,0,1,2.72-3.6c1.77-.63,3.14.13,4.29,1.35a27.74,27.74,0,0,1,2.38,3q9.66,13.42,19.29,26.88c2.51,3.51,4.95,7.07,7.43,10.6.55.78,1.11,1.56,1.7,2.32s1.28,1.69,2.3,1.13a2.88,2.88,0,0,0,1-2,30.53,30.53,0,0,0,.08-3.83q0-16.06,0-32.13a30.88,30.88,0,0,1,.19-4.3,3.24,3.24,0,0,1,2.85-2.83,2.7,2.7,0,0,1,3.43,2.39,13.64,13.64,0,0,1,.09,1.92q0,24.21,0,48.43a13,13,0,0,1-.21,2.86,3.73,3.73,0,0,1-6,2.25,17.92,17.92,0,0,1-3.15-3.57q-9.27-12.84-18.44-25.72c-3-4.17-5.87-8.38-8.84-12.55a32.41,32.41,0,0,0-2.42-2.95,1.19,1.19,0,0,0-1.91.57,34.07,34.07,0,0,0-.31,4.27c0,11.19,0,22.38,0,33.57a30.51,30.51,0,0,1-.13,3.83,3.41,3.41,0,0,1-3.16,3.07,2.52,2.52,0,0,1-3.08-2.25,30.66,30.66,0,0,1-.15-3.83Q818.3,475.53,818.31,464Z"/>
        <path class="cls-1" d="M1467.56,436.91c-.16-2.87-.21-5.75-.53-8.6a6.65,6.65,0,0,1,2.37-5.91c5.61-5.46,11.1-11,16.64-16.56,3.5-3.5,7-7,10.53-10.48a15.62,15.62,0,0,1,2.25-1.7c.47-.3,1.45.38,1.35.93a25.35,25.35,0,0,1-.74,3.24q-5.82,17.75-11.67,35.46-6.65,20.23-13.3,40.47c-.6,1.81-1.33,3.58-2.1,5.31-.13.29-.82.41-1.26.43-.22,0-.61-.36-.66-.61a28.17,28.17,0,0,1-.57-3.74q-1.17-19.12-2.28-38.24Z"/>
        <path class="cls-1" d="M1433.32,486.8c-.25-2.08-.51-3.62-.6-5.18q-1.23-20.55-2.4-41.1c-.12-1.91-.22-3.83-.49-5.73a7.8,7.8,0,0,1,2.59-7.3c3.37-3.17,6.56-6.53,9.83-9.8q8.31-8.29,16.62-16.57a15.17,15.17,0,0,1,2.15-1.87,1.47,1.47,0,0,1,1.31,0,1.43,1.43,0,0,1,.6,1.16,26.39,26.39,0,0,1-.94,3.7q-13,39.3-26,78.59C1435.59,484,1435.52,485.59,1433.32,486.8Z"/>
        <path class="cls-1" d="M1358.75,497.61c-.4-5.11-.79-9.37-1.06-13.65q-1.17-18.39-2.27-36.8c0-.64,0-1.28-.12-1.91a7.51,7.51,0,0,1,2.59-6.83c4.26-4.1,8.36-8.36,12.53-12.54q6.76-6.78,13.57-13.53c.88-.86,1.89-1.58,3.22-2.68.39,1.12.91,1.85.79,2.45a39.3,39.3,0,0,1-1.38,4.57q-12.43,38-24.88,75.95c-.4,1.21-.82,2.42-1.32,3.59C1360.27,496.58,1359.79,496.77,1358.75,497.61Z"/>
        <path class="cls-2" d="M264.82,471.89c1.22,1.9,2,3.25,2.93,4.52,2.78,3.91,5.61,7.78,8.4,11.68a32.24,32.24,0,0,1,1.85,2.8,1.59,1.59,0,0,1-1.24,2.48,5.81,5.81,0,0,1-4.92-1.37,24.22,24.22,0,0,1-2.85-3.22c-3.05-4.11-6.21-8.14-9-12.43-2.07-3.21-4.66-4.58-8.42-4.13-1.73.2-3.51,0-5.27.07-2.5.14-3.36,1-3.43,3.61-.1,3.51,0,7,0,10.55,0,1.12.06,2.24-.05,3.35a3.36,3.36,0,0,1-3.82,3.36c-1.71-.08-2.71-1.13-2.94-3.16a21.31,21.31,0,0,1-.06-2.4q-.1-23-.21-46a37.6,37.6,0,0,1,.12-3.83,2.67,2.67,0,0,1,2.4-2.59,5.13,5.13,0,0,1,.94-.16c8-.64,16-1,23.9.62a26.53,26.53,0,0,1,2.8.67c9.16,2.88,11.85,7,13.31,16.2a13.89,13.89,0,0,1-4.45,12.62,46.66,46.66,0,0,1-5.75,4.25C267.87,470.15,266.61,470.81,264.82,471.89Zm-22-18.53h.05c0,3.35-.08,6.69,0,10,.06,2.14.84,3,2.91,3,4.62.06,9.24.05,13.85-.13a14.86,14.86,0,0,0,8-2.86,12.05,12.05,0,0,0,.37-19.31,14.74,14.74,0,0,0-8.38-3.16c-4.61-.22-9.24-.16-13.85-.07-2.09,0-2.89.9-3,3C242.76,447,242.82,450.18,242.82,453.36Z"/>
        <path class="cls-2" d="M183.16,472.17c1,1.63,1.76,2.85,2.58,4,2.59,3.64,5.22,7.25,7.84,10.88.65.9,1.33,1.79,1.95,2.72s1.44,2,.42,3a4,4,0,0,1-2.64.6,6.36,6.36,0,0,1-4.8-2.81c-1.76-2.27-3.44-4.6-5.13-6.93q-3.23-4.46-6.43-8.93a5.33,5.33,0,0,0-4.86-2.48c-2.71.09-5.43,0-8.14.09a2.69,2.69,0,0,0-2.84,2.66,38.54,38.54,0,0,0-.15,4.3c0,3.51,0,7-.09,10.53a3.13,3.13,0,0,1-2.87,3.27,3.16,3.16,0,0,1-3.79-2.74,21.92,21.92,0,0,1-.16-3.34q0-23.22,0-46.44c0-5.17.26-5.45,5.28-5.8a101,101,0,0,1,17.22.07,36.64,36.64,0,0,1,12,3.16,13.47,13.47,0,0,1,7.26,7.87,23.71,23.71,0,0,1,1.77,9.33c-.35,6.41-4.24,10.45-9.29,13.67-.93.6-2,1-3,1.53A19.77,19.77,0,0,0,183.16,472.17ZM161,453.36h.18c0,3.35-.07,6.7,0,10,.07,2.14.85,3,2.93,3,4.78,0,9.57.1,14.34-.21a13.87,13.87,0,0,0,9-4.1,11.9,11.9,0,0,0-.07-17.11,14.13,14.13,0,0,0-9.45-4.08c-4.62-.21-9.25-.13-13.87,0-2.06,0-2.94.91-3,2.95C160.87,447,161,450.17,161,453.36Z"/>
        <path class="cls-1" d="M1396.24,491.46c-.2-1.15-.43-2-.49-2.88q-1.34-20.82-2.63-41.63a61.07,61.07,0,0,0-.39-6.21,8.46,8.46,0,0,1,2.84-8.13c6-5.75,11.78-11.73,17.66-17.61,2.82-2.83,5.63-5.67,8.5-8.45a7.48,7.48,0,0,1,2.33-1.57c.27-.11,1.3.65,1.26.91a24.69,24.69,0,0,1-1,4.16q-5.62,17.31-11.31,34.61-7,21.16-14,42.31a35.12,35.12,0,0,1-1.36,3.58C1397.53,490.87,1397,491,1396.24,491.46Z"/>
        <path class="cls-2" d="M741.92,463.92q0-10.05,0-20.11c0-1.6,0-3.2.09-4.79.2-3.47.94-4.23,4.31-4.34,3-.09,6.07-.08,9.11-.1q8.63-.06,17.25-.08a36.38,36.38,0,0,1,4.31.13,3,3,0,0,1,2.53,4.22,2.85,2.85,0,0,1-1.58,1.58,11.74,11.74,0,0,1-3.31.27c-6.71,0-13.43,0-20.14,0-1.11,0-2.24,0-3.35,0-1.67.11-2.53.74-2.56,2.24q-.2,7.65-.13,15.31c0,1.53.9,2.24,2.47,2.37,1.11.09,2.24.07,3.35.07q9.12,0,18.22,0a20.72,20.72,0,0,1,3.34.18,2.82,2.82,0,0,1,2.34,3.12,2.65,2.65,0,0,1-2.38,2.59,34.75,34.75,0,0,1-3.82.15H754.24a34.93,34.93,0,0,0-3.83.14,2.19,2.19,0,0,0-1.91,1.88,6.8,6.8,0,0,0-.13,1.43c-.06,4.15-.19,8.3-.14,12.45,0,3.41.57,3.91,3.87,4,2.55.06,5.11,0,7.67,0,4.79,0,9.58,0,14.38,0a19.47,19.47,0,0,1,3.33.2,2.82,2.82,0,0,1,2.12,2.84,2.94,2.94,0,0,1-1.87,3,9.92,9.92,0,0,1-2.82.36c-9.42-.11-18.85-.26-28.27-.4a11.57,11.57,0,0,1-1.44-.07c-2.22-.28-3.07-1.1-3.26-3.37-.13-1.43-.1-2.87-.1-4.31q0-10.53,0-21.08Z"/>
        <path class="cls-2" d="M558,463.74c0-7.67,0-15.34,0-23,0-5.57.55-6,6-6.08q12.71-.11,25.41-.17a25.72,25.72,0,0,1,3.83.16,3.08,3.08,0,0,1,2.13,4.76,2.45,2.45,0,0,1-1.44,1.12,17.58,17.58,0,0,1-3.33.18c-6.71,0-13.43,0-20.14,0-1.12,0-2.24,0-3.35.06-1.65.13-2.48.77-2.51,2.32-.08,5.1-.07,10.22,0,15.32a2,2,0,0,0,2.07,2.18c1.27.12,2.56.11,3.83.11l17.27,0c1.12,0,2.24,0,3.35.07,2.05.18,3.1,1.2,3.12,2.91s-1,2.85-3,3c-1.11.1-2.24.06-3.36.06H570.71c-1.12,0-2.24,0-3.36.05-1.88.16-2.71.83-2.74,2.62q-.15,7.43,0,14.85c0,1.58.81,2.21,2.48,2.32s3.19.07,4.79.07l17.74,0c1.12,0,2.25,0,3.36.11a2.71,2.71,0,0,1,2.79,2.7c.12,1.89-.78,3.22-2.51,3.5a17.15,17.15,0,0,1-2.87.13c-8.79-.08-17.58-.15-26.37-.29-5.43-.09-6-.65-6-6.13-.05-7.67,0-15.34,0-23Z"/>
        <path class="cls-2" d="M499.46,493.74c-9.23,0-16.14-2.74-21.6-8.82a22.74,22.74,0,0,1-2.05-2.64,2.44,2.44,0,0,1,.19-3.1,2.72,2.72,0,0,1,3.46-.67,16.92,16.92,0,0,1,2.25,1.74c1.47,1.23,2.83,2.6,4.39,3.7,6.52,4.65,13.59,5.12,21,2.47a11.19,11.19,0,0,0,6.2-5c2.29-4,1.29-8.41-2.69-10.79a23.06,23.06,0,0,0-5.29-2.16c-4.75-1.38-9.59-2.48-14.32-3.93a33.72,33.72,0,0,1-7-3,13.62,13.62,0,0,1-.31-23.69c7.58-4.73,20.76-6.24,30.19,1.4a36.29,36.29,0,0,1,4.74,4.7,3,3,0,0,1-.28,4,2.31,2.31,0,0,1-3,.55c-.79-.54-1.47-1.23-2.2-1.84a51.09,51.09,0,0,0-4.45-3.63c-6.63-4.34-13.52-4.32-20.46-.79a10.31,10.31,0,0,0-3.24,2.75,7.47,7.47,0,0,0,1.53,11,17.14,17.14,0,0,0,5.16,2.4c5.19,1.58,10.45,2.94,15.67,4.44a21.26,21.26,0,0,1,10.18,6c4.76,5.23,5,11.48.51,16.89a22.06,22.06,0,0,1-13.94,7.72C502.16,493.65,500.23,493.68,499.46,493.74Z"/>
        <path class="cls-2" d="M85.13,441.62c-.73,3.67-.78,13.79-.1,18.09.94,1.2,2.29,1,3.54,1,6.56,0,13.12,0,19.68,0a25.67,25.67,0,0,1,3.82.2,2.62,2.62,0,0,1,2.27,2.68,2.71,2.71,0,0,1-2.4,3.05,29,29,0,0,1-3.36.11H91.31c-1,0-1.92,0-2.88,0-3.37.12-3.79.5-3.84,4-.06,4.16,0,8.31,0,12.47a15.75,15.75,0,0,0,.35,2.46c1.54,1.32,3,1,4.43,1,6.72.05,13.44,0,20.16,0a30.51,30.51,0,0,1,3.83.17,2.84,2.84,0,0,1,2.53,3,3.17,3.17,0,0,1-2.49,3.11,11.09,11.09,0,0,1-2.38.18q-14.16-.12-28.31-.27a11.6,11.6,0,0,1-1.44-.09c-2-.28-2.85-1.06-3.13-3a21.15,21.15,0,0,1-.15-2.87c0-15.19,0-30.38,0-45.57,0-6.51.23-6.63,6.84-6.69l24.48-.17a32.6,32.6,0,0,1,3.83.11,3.12,3.12,0,0,1,2.31,4.69,2.93,2.93,0,0,1-1.84,1.25,22.08,22.08,0,0,1-3.82.16c-6.72,0-13.44,0-20.16,0C88.12,440.73,86.45,440.38,85.13,441.62Z"/>
        <path class="cls-2" d="M419.13,493.85c-8.09-.05-15-2.82-20.55-8.78a21.27,21.27,0,0,1-2.27-3.06,2.2,2.2,0,0,1,.33-2.67,2.54,2.54,0,0,1,3-1A9.12,9.12,0,0,1,402,480c1.34,1.12,2.56,2.41,3.95,3.47,6.83,5.23,14.33,5.77,22.21,2.88a11.25,11.25,0,0,0,5.52-4.44,7.58,7.58,0,0,0-1.59-10.67,15.46,15.46,0,0,0-6.05-2.77c-4.94-1.3-9.91-2.49-14.8-4a31.74,31.74,0,0,1-7-3.1c-7.87-4.71-9.11-14.66-2.71-21.27a14.11,14.11,0,0,1,3.77-2.91c10-4.87,22.5-4.92,31.94,4.38a14.78,14.78,0,0,1,1.87,2.17,3.31,3.31,0,0,1,.33,3.2,2.53,2.53,0,0,1-3.91,1.27c-1.26-1-2.38-2.13-3.57-3.19a20.46,20.46,0,0,0-8.76-4.75,19.64,19.64,0,0,0-14.8,2.12,8.22,8.22,0,0,0-4.41,6.46,7,7,0,0,0,3,7.1,22.13,22.13,0,0,0,5.63,2.53c5.5,1.67,11.06,3.14,16.59,4.73a19.5,19.5,0,0,1,8.87,5.44c4.42,4.65,5,10.39,1.43,15.76s-8.69,7.84-14.71,8.95A57.05,57.05,0,0,1,419.13,493.85Z"/>
        <path class="cls-2" d="M362.32,493.34a5.22,5.22,0,0,1-5.08-3.25,49,49,0,0,1-2.15-5.33c-1.1-3.41-3.39-4.65-6.9-4.59q-11.51.21-23,0c-3.41-.07-5.39,1.41-6.52,4.48-.72,1.94-1.55,3.85-2.43,5.73-1.08,2.33-3,3.16-5.51,2.89a1.78,1.78,0,0,1-1.62-2.37,23.32,23.32,0,0,1,1.05-2.66l18.27-41.7c1.1-2.49,2.14-5,3.33-7.43,1.08-2.19,2.41-4.36,5.24-4.29,2.58.07,3.77,2.14,4.88,4.11.55,1,1,2,1.46,3q10.11,23.06,20.19,46.1c.32.73.63,1.47.88,2.23C365,492.28,364.17,493.43,362.32,493.34Zm-25.44-48.76c-.38.16-.83.2-.92.41q-5.54,12.43-11,24.92a29.76,29.76,0,0,0-1,3.42c1.29,1.5,2.79,1.26,4.2,1.3,11.32.32,18.55-.06,21.46-1.17a8.9,8.9,0,0,0-.38-2.23q-5.58-13-11.27-25.87C337.78,445,337.21,444.82,336.88,444.58Z"/>
        <path class="cls-2" d="M17.44,466.71V447.06c0-1.12,0-2.24-.06-3.36-.14-1.81-.86-2.64-2.67-2.72-2.39-.1-4.8,0-7.19,0a40,40,0,0,1-5.25-.27A2.76,2.76,0,0,1,0,437.54,2.8,2.8,0,0,1,2.44,435a11,11,0,0,1,1.91-.13q16.31,0,32.61,0a8.69,8.69,0,0,1,1.9.19,2.92,2.92,0,0,1,2.31,2.7,3,3,0,0,1-2.09,2.88,16,16,0,0,1-3.31.37c-2.24,0-4.48-.08-6.72-.08-5,0-5.21.23-5.16,5.05,0,1,0,1.92,0,2.88q0,18.69,0,37.39a30.66,30.66,0,0,1-.17,4.29,3.1,3.1,0,0,1-3.34,2.77c-1.75-.08-2.81-1.12-3-3.09-.1-1.11-.06-2.23-.06-3.35V466.71Z"/>
        <path class="cls-2" d="M926.69,466.71c0,6.86,0,13.72,0,20.58a20.1,20.1,0,0,1-.32,3.8,2.87,2.87,0,0,1-2.86,2.11,2.76,2.76,0,0,1-2.83-2.11,23.52,23.52,0,0,1-.31-4.28c0-11.8.11-23.61.16-35.41,0-2.39.06-4.79,0-7.18s-.76-3.18-3.12-3.27c-2.71-.11-5.42,0-8.14-.06a28.6,28.6,0,0,1-3.34-.08,3.06,3.06,0,0,1-2.69-2.92,2.91,2.91,0,0,1,2.52-3,14.49,14.49,0,0,1,2.38-.12q15.33,0,30.65.07a15.29,15.29,0,0,1,3.31.32,2.51,2.51,0,0,1,2,2.36,2.76,2.76,0,0,1-1.81,3A13,13,0,0,1,939,441c-2.4,0-4.79-.06-7.18-.07a19.44,19.44,0,0,0-2.86.15,2.35,2.35,0,0,0-2.16,2.21c-.12,1.26-.11,2.54-.11,3.82Q926.68,456.9,926.69,466.71Z"/>
        <path class="cls-1" d="M1396,223.43l-.46.38,0-.3.38.06Z"/>
      </g>
    </g>
  </g>
</svg>
